<svg width="85" height="88" viewBox="0 0 85 88" fill="none" xmlns="http://www.w3.org/2000/svg">
<path d="M84.8571 69.1429H0V28.2857C0 24.8142 2.81423 22 6.28571 22H78.5714C82.0429 22 84.8571 24.8142 84.8571 28.2857V69.1429Z" fill="#41408C"/>
<path d="M78.5714 69.1429H0V28.2857C0 24.8142 2.81423 22 6.28571 22H72.2857C75.7572 22 78.5714 24.8142 78.5714 28.2857V69.1429Z" fill="#5653E1"/>
<path d="M6.28571 77H78.5714C82.0429 77 84.8571 74.1857 84.8571 70.7143V69.1428H0V70.7143C0 74.1857 2.81423 77 6.28571 77Z" fill="#A5C3DC"/>
<path d="M72.2857 77H6.28571C2.81423 77 0 74.1857 0 70.7143V69.1428H78.5714V70.7143C78.5714 74.1857 75.7572 77 72.2857 77Z" fill="#D7E6F0"/>
<path d="M33 77H47.1429V83.2857H33V77Z" fill="#A5C3DC"/>
<path d="M33 80.1428H42.4286V83.2857H33V80.1428Z" fill="#D7E6F0"/>
<path d="M54.9999 87.9999H23.5713V86.4285C23.5713 84.6927 24.9783 83.2856 26.7141 83.2856H51.857C53.5928 83.2856 54.9999 84.6927 54.9999 86.4285V87.9999Z" fill="#D7E6F0"/>
<path d="M54.9999 87.9999H45.5713V86.4285C45.5713 84.6927 46.9783 83.2856 48.7141 83.2856H51.857C53.5928 83.2856 54.9999 84.6927 54.9999 86.4285V87.9999Z" fill="#A5C3DC"/>
<path d="M39.2856 44C51.4359 44 61.2856 34.1503 61.2856 22C61.2856 9.84974 51.4359 0 39.2856 0C27.1354 0 17.2856 9.84974 17.2856 22C17.2856 34.1503 27.1354 44 39.2856 44Z" fill="#41408C"/>
<path d="M50.2856 15.7144V28.2858C53.7571 28.2858 56.5714 25.4716 56.5714 22.0001C56.5714 18.5286 53.7571 15.7144 50.2856 15.7144Z" fill="#FFE071"/>
<path d="M31.4286 28.2858H25.1429C23.407 28.2858 22 26.8788 22 25.1429V18.8572C22 17.1214 23.407 15.7144 25.1429 15.7144H31.4286V28.2858Z" fill="#59E6D4"/>
<path d="M31.4286 28.2857H25.1429C23.407 28.2857 22 26.8787 22 25.1429V22H31.4286V28.2857Z" fill="#2387C3"/>
<path d="M31.4282 15.7142H31.9674C37.6591 15.7142 43.1179 13.4531 47.1425 9.42847V34.5713C43.1179 30.5467 37.6591 28.2856 31.9674 28.2856H31.4282V15.7142Z" fill="#D7E6F0"/>
<path d="M48.714 37.7142C49.5818 37.7142 50.2854 37.0106 50.2854 36.1428V7.85707C50.2854 6.98925 49.5818 6.28564 48.714 6.28564C47.8462 6.28564 47.1426 6.98925 47.1426 7.85707V36.1428C47.1426 37.0106 47.8462 37.7142 48.714 37.7142Z" fill="#2387C3"/>
<path d="M48.714 21.9999C49.5818 21.9999 50.2854 21.2963 50.2854 20.4285V7.85707C50.2854 6.98925 49.5818 6.28564 48.714 6.28564C47.8462 6.28564 47.1426 6.98925 47.1426 7.85707V20.4285C47.1426 21.2963 47.8462 21.9999 48.714 21.9999Z" fill="#59E6D4"/>
<path d="M31.4283 28.2856L35.0037 33.6487C36.1622 35.3865 34.9165 37.7142 32.8278 37.7142C31.9535 37.7142 31.137 37.2772 30.652 36.5498L25.1426 28.2856H31.4283Z" fill="#A5C3DC"/>
<path d="M31.4282 22H47.1425V34.5714C43.1179 30.5468 37.6591 28.2857 31.9674 28.2857H31.4282V22Z" fill="#A5C3DC"/>
<path d="M42.4284 47.1428H29.048C26.5475 47.1428 24.1493 48.1362 22.3811 49.9044L18.8569 53.4285L26.7141 61.2857L30.5079 57.4919C31.0974 56.9024 31.8966 56.5714 32.7303 56.5714H42.4284C45.032 56.5714 47.1426 54.4608 47.1426 51.8571C47.1426 49.2534 45.032 47.1428 42.4284 47.1428Z" fill="#FAB991"/>
<path d="M65.0794 44.9204C63.8521 43.6929 61.8621 43.6929 60.6348 44.9204L48.984 56.5713H32.7306C31.8971 56.5713 31.0977 56.9025 30.5082 57.4918L26.7144 61.2856L31.4286 65.9999L34.5715 62.857H49.635C50.8943 62.857 52.0782 62.3666 52.9684 61.4762L65.0796 49.365C66.3069 48.1377 66.3069 46.1478 65.0794 44.9204Z" fill="#F0915A"/>
<path d="M42.4286 54.4762H41.381C40.5132 54.4762 39.8096 53.7726 39.8096 52.9048V50.8095C39.8096 49.9416 40.5132 49.238 41.381 49.238H42.4286C43.8751 49.238 45.0475 50.4107 45.0475 51.857C45.0475 53.3037 43.8751 54.4762 42.4286 54.4762Z" fill="#F0915A"/>
<path d="M18.3969 52.9683L26.7143 61.2857L18.8571 69.1428H0L16.1745 52.9683C16.7882 52.3546 17.7833 52.3546 18.3969 52.9683Z" fill="#5AD7FF"/>
<path d="M26.7141 61.2856L31.8886 66.4602C32.5022 67.0738 32.5022 68.0689 31.8886 68.6826L31.4284 69.1428H18.8569L26.7141 61.2856Z" fill="#2387C3"/>
</svg>
